<?xml version="1.0" encoding="utf-8"?>
<!-- Generator: Adobe Illustrator 27.1.1, SVG Export Plug-In . SVG Version: 6.00 Build 0)  -->
<svg version="1.1" id="Layer_1" xmlns="http://www.w3.org/2000/svg" xmlns:xlink="http://www.w3.org/1999/xlink" x="0px" y="0px"
	 viewBox="0 0 752.6 239.7" style="enable-background:new 0 0 752.6 239.7;" xml:space="preserve" width="266" height="130">
<style type="text/css">
	.st0{fill:#FFFFFF;}
</style>
	<path class="st0" d="M96.4,124L93,154.6l21.7-11.2l1.3-0.6l3.6-32.5L96.4,124z M197.9,103.9v0.3c0-0.1,0.1-0.2,0.2-0.4L197.9,103.9z
	 M266.2,26.1c-0.2,0-0.3,0-0.5,0C265.9,26.1,266,26.1,266.2,26.1h0.1H266.2z M267.6,25.7c-0.1,0.1-0.3,0.2-0.4,0.2
	c-0.2,0.1-0.3,0.1-0.5,0.1c0.1,0,0.3-0.1,0.4-0.1c0.3-0.1,0.6-0.3,0.9-0.6C267.8,25.5,267.7,25.6,267.6,25.7 M231.9,42.9l-4.7,47.3
	l0,0c1.3-0.6,2.5-1.1,3.7-1.6c4.8-2.1,9.5-4.1,14-5.8c0.2-0.1,0.4-0.1,0.6-0.1l0,0v-0.1l5.1-49.5C243.2,36.5,236.9,40,231.9,42.9
	 M251.3,32.4c-0.2,0-0.4,0-0.6-0.1l-0.1,0.7c0.6-0.3,1.2-0.5,1.8-0.8C252,32.3,251.6,32.4,251.3,32.4 M295.5,68
	c0.6-0.1,1.2,0,1.7,0.3l0.1-0.6C296.7,67.8,296.1,67.9,295.5,68 M282.7,20.7c-1.1,0.3-2.2,0.6-3.3,1l-5.3,50.8
	c1.2-0.3,2.3-0.6,3.4-0.9c2-0.5,4-1,5.8-1.3c3.2-0.6,6.1-1.2,8.9-1.7l5.4-51.5C292.7,18.1,287.7,19.3,282.7,20.7 M320.5,14
	c-5.8,0.4-11.8,1.1-17.8,2.1l-5.4,51.6c6-1,11.5-1.7,16.8-2.3c0.3,0,0.6,0,0.9,0.1v-0.2L320.5,14L320.5,14z M297.7,16.7v0.4
	c0.4-0.1,0.9-0.2,1.3-0.3C298.5,16.9,298,16.9,297.7,16.7 M325.6,13.8L320.1,65c4.2-0.3,8.2-0.5,12.2-0.5l0,0c1.8,0,3.6,0,5.4,0
	l5.5-50.9C338,13.4,332.1,13.5,325.6,13.8 M348.3,13.8l-5.5,50.9c2.6,0.1,5.2,0.3,7.8,0.6c3.2,0.3,6.4,0.7,9.7,1.2l5.7-50.8
	C360.9,14.8,355,14.1,348.3,13.8 M366.9,15.8C366.8,15.8,366.8,15.8,366.9,15.8c-0.3-0.1-0.6-0.1-0.9-0.2v0.1
	c0.4,0.1,0.8,0.1,1.2,0.2C367,15.8,366.9,15.8,366.9,15.8 M370.8,16.7l-5.7,50.5v0.1c0.3,0,0.5,0,0.8,0c3.5,0.6,6.9,1.4,10.3,2.2
	c1.7,0.4,3.4,0.8,5,1.3c0.4,0.1,0.7,0.3,1,0.5v-0.2l5.5-49C382.1,19.9,376.5,18.1,370.8,16.7 M408,39L408,39l-0.1-0.3
	c-0.5-1.6-1.7-3.4-3.4-5.3l0,0l-0.1-0.1c-1.5-1.6-3.3-3.3-5.5-4.9c0,0,0,0-0.1,0l0,0l-0.1-0.1l0,0c-1.2-0.9-2.3-1.7-3.5-2.3
	c-0.8-0.5-1.7-1-2.7-1.5l-5.4,48.2c2.1,0.7,4.2,1.3,6.1,2c3,1.1,7.4,3.4,10.8,5.2l4.4-39.2C408.2,40,408.2,39.5,408,39 M390.8,23.4
	c0.6,0.3,1.1,0.6,1.6,0.8v-0.1C391.9,23.9,391.4,23.7,390.8,23.4 M267.1,26c-3.8,1.4-7.6,3-11.3,4.6l-5.1,49.9
	c3.6-1.4,7.1-2.7,10.3-3.8c2.8-1,5.4-1.8,7.9-2.6l5.3-50.6C271.9,24.2,269.5,25.1,267.1,26 M225.4,47l-0.1,0.1
	c-4.1,2.6-6.3,4.3-6.3,4.3c-0.1,0.1-0.2,0.1-0.2,0.2l-6.2,3.6h-0.1l0,0l-3.7,2.2l-5.4,43.9v0.2c0.2-0.2,0.4-0.4,0.7-0.5
	c0.1,0,0.2-0.1,0.3-0.1c2.9-1.4,7.4-3.6,12.9-6.1c1.6-0.7,3.2-1.5,4.8-2.2l0,0l4.6-46.4C226.2,46.5,225.8,46.7,225.4,47 M226.2,46
	c0.1-0.2,0.2-0.4,0.2-0.7C226.4,45.6,226.3,45.8,226.2,46 M208.8,53.9L208.8,53.9C208.8,54,208.9,54,208.8,53.9
	C208.9,54,208.8,54,208.8,53.9 M182.3,73.1l-4.4,40.4L198,104l0,0l5.3-43.3L182.3,73.1z M153.5,90.1l-4,36.8l23.1-10.9l4.4-39.7
	L153.5,90.1z M125,107L125,107l-3.6,33.2l22.8-10.8l4-36.1L125,107z M65.3,174.6l-2.2,19.1l21.6-8.6l2.4-21.8L65.3,174.6z
	 M148.8,132.7l-3.1,28l22.9-9.1l3.3-29.8L148.8,132.7z M197.1,109.9l-19.9,9.4l-3.3,30.2l19.3-7.7L197.1,109.9L197.1,109.9z
	 M120.7,146l-2.8,25.8l22.6-9l3-27.6L120.7,146z M92.4,160.5L90,182.9l22.7-9l2.8-25.3L92.4,160.5z M173.3,155.1L173.3,155.1
	l-3.7,33.4l19.4-5.7l2.6-28.5c0,0,0,0,0-0.1l0,0l0.8-6.8L173.3,155.1z M169,193.9l-3.5,31.6l0,0l19.6-0.1l3.4-37.3L169,193.9z
	 M113.7,210.1l-1.7,15.7l21.6-0.1l2.4-22.1L113.7,210.1z M59.3,226L59.3,226L59.3,226l20.9-0.1l0.7-6.2L59.3,226z M86.1,218.1
	l-0.8,7.7l21.7-0.1l1.6-14.2L86.1,218.1z M117.3,177.4l-3,27.3l22.3-6.5l3.3-29.8L117.3,177.4z M145.1,166.3l-3.3,30.4l22.6-6.6
	l3.6-32.9L145.1,166.3z M160.6,225l3.2-29.6l-22.6,6.6l-2.6,23.6l22-0.1C160.6,225.4,160.6,225.2,160.6,225 M89.4,188.5L89.4,188.5
	l-2.7,24.3l22.4-6.6l2.9-26.7L89.4,188.5z M62.4,199.3l-2.5,21.3l21.6-6.3l2.6-23.7L62.4,199.3z M213.1,181.1
	c-1.2,0.3-2.4,0.7-3.5,1c-0.1,0-0.1,0-0.2,0l0,0c-6.9,1.9-11.2,3.2-11.3,3.3l-4.4,1.3l-3.5,38.7l18.8-0.1c-0.1-0.3-0.2-0.7-0.1-1
	L213.1,181.1z M236.6,169.8L236.6,169.8c0,0,0.1,0,0.2,0C236.7,169.8,236.6,169.8,236.6,169.8 M228.4,134.6c-1.9,0.6-3.9,1.3-5.8,2
	l-3.8,37.8c1.2-0.3,2.4-0.6,3.6-1c4.8-1.3,9.5-2.5,14.2-3.6l4-39.2C236.7,131.8,232.6,133.1,228.4,134.6 M214.5,139.4
	c-5.7,2-10.4,3.7-13.3,4.8h-0.1c-1.5,0.5-2.6,1-3.3,1.2l-1.2,9.5v0.1l-2.4,26.4l2.5-0.7c0,0,4.5-1.3,11.5-3.3l0,0l0,0
	c1.8-0.5,3.5-1,5.3-1.5l0,0l3.7-37.4C216.4,138.7,215.5,139,214.5,139.4 M259.1,125c-4,1.1-8.5,2.4-13.3,3.9l-4.1,39.6l0,0
	c6.2-1.5,12.2-2.8,17.8-4l4.3-40.8C262.3,124.1,260.7,124.5,259.1,125 M271.6,167.2c-2.4,0.4-4.9,0.9-7.5,1.4l-5.9,56.5l17.5-0.1
	l6.2-59.4C278.2,166.1,274.7,166.7,271.6,167.2 M275.4,121.2L275.4,121.2l-1.4,0.2c-1.5,0.3-3.2,0.6-5.1,1.1l-4.3,41
	c2.1-0.4,4.1-0.8,6-1.2c3.6-0.7,7.5-1.3,11.9-1.8l4.3-41.1C282.7,120,278.9,120.5,275.4,121.2 M397.6,126.3
	c-1.3-0.7-2.4-1.4-4.7-2.2c-3.7-1.4-7.4-2.6-11.2-3.5l-4.4,40l0,0c8.7,1.4,14,3.2,17.1,4.5l4.3-38.3
	C398.3,126.7,398,126.5,397.6,126.3 M376.7,165.6l-6.6,59l17.7-0.1c0-0.1,0-0.2,0-0.3l6-53.9C391.8,169.4,386.8,167.3,376.7,165.6
	 M368.7,118.2c-1-0.1-1.9-0.2-2.9-0.3c-2-0.2-4.1-0.4-6.3-0.5l-4.6,41.1c4.8,0.2,8.9,0.5,12.3,0.8c1.8,0.2,3.5,0.4,5.2,0.6l4.5-40.4
	C374.1,118.9,371.4,118.5,368.7,118.2 M366.7,164.2c-3.3-0.3-7.5-0.6-12.3-0.8l-6.9,61.3l17.7-0.1l6.6-59.8
	C370.2,164.6,368.5,164.4,366.7,164.2 M350.3,116.9L350.3,116.9c-4.3-0.2-8.7-0.2-13.2-0.2l-4.5,41.4c6.3,0,12.1,0.1,17.3,0.2
	l4.6-41.2C353.2,117,351.8,117,350.3,116.9 M332.1,163l-6.7,61.8l17.1-0.1l6.9-61.5C344.2,163.1,338.3,163,332.1,163 M331.3,116.7
	L331.3,116.7c-5.6,0.1-11.2,0.2-16.9,0.5l-4.5,41.2v0.2c0.3-0.1,0.6-0.2,1-0.2h0.1c5.4-0.2,11-0.3,16.6-0.4l0,0l4.5-41.3v-0.2
	C331.9,116.7,331.6,116.7,331.3,116.7 M311.1,163.4H311c-0.5,0-1.1,0-1.6,0.1l-6.6,61.3v0.1l17.7-0.1l6.7-61.8
	C321.6,163.1,316.3,163.2,311.1,163.4 M294.2,118.7c-0.8,0.1-1.5,0.2-2.3,0.2l-4.3,41.1l0,0c1.3-0.1,2.7-0.3,4.1-0.4
	c4.1-0.3,8.6-0.6,13.2-0.9l0,0l4.5-41.2C304.1,117.8,299,118.2,294.2,118.7 M297.8,224.3l6.6-60.5c-4.3,0.2-8.4,0.5-12.2,0.8
	c-1.7,0.2-3.4,0.3-5.1,0.5l-6.3,60l17-0.1C297.8,224.7,297.8,224.5,297.8,224.3 M241.2,173.8l-5.3,51.4l17.2-0.1l5.8-55.4
	C253.3,171,247.4,172.3,241.2,173.8 M219.2,99.3c-5.6,2.6-10.2,4.8-13.1,6.2H206c0,0,0,0-0.1,0h-0.1c-2,1-3.1,1.6-3.1,1.6l-0.3,0.1
	l-3.9,32.4l-0.1,0.4c0.3-0.3,0.6-0.6,1.1-0.8c0,0,0.1,0,0.2-0.1l0,0c3-1.1,7.6-2.8,13.2-4.7c1.7-0.6,3.4-1.2,5.1-1.8l0,0l3.4-34.5
	C220.6,98.7,219.9,99,219.2,99.3 M202.4,107.4L202.4,107.4L202.4,107.4C202.4,107.3,202.4,107.3,202.4,107.4 M262.7,81.4
	c-0.1,0-0.1,0-0.2,0.1c-3.8,1.3-8,2.9-12.3,4.6l-3.8,37.5c4.1-1.3,7.9-2.4,11.4-3.4c2.3-0.6,4.5-1.2,6.6-1.7l4.1-39
	C266.6,80.1,264.6,80.7,262.7,81.4 M245.8,87.6c-0.3,0-0.5,0-0.8-0.1l-0.1,0.7l0,0c0.6-0.3,1.2-0.5,1.8-0.7
	C246.4,87.5,246.1,87.6,245.8,87.6 M232.9,93.2c-2.1,0.9-4.2,1.8-6.3,2.8l-3.5,35.1l0,0c1.2-0.4,2.4-0.8,3.6-1.2h0.1
	c4.9-1.7,9.6-3.2,14.1-4.6l0,0l0,0c0.1,0,0.2,0,0.2-0.1l0,0l3.8-37C241.1,89.7,237,91.4,232.9,93.2 M296.8,72.9l-4.3,41v0.4l0,0
	c0.4-0.3,0.8-0.5,1.3-0.5c5.2-0.5,10.6-0.9,16.2-1.2l0,0l4.5-42C308.9,71,303.1,71.8,296.8,72.9 M332.3,69.4L332.3,69.4
	c-4.2,0-8.4,0.2-12.8,0.6l-4.6,42.2c5.4-0.3,10.9-0.4,16.3-0.5l0,0c0.5,0,1,0.2,1.4,0.4v-0.4l4.6-42.3
	C335.6,69.4,334,69.4,332.3,69.4 M350.1,70.2c-2.6-0.3-5.2-0.4-7.9-0.6l-4.6,42.1c4.4,0,8.6,0.1,12.7,0.2h0.1
	c1.6,0.1,3.2,0.1,4.7,0.2l4.6-40.8C356.5,70.9,353.3,70.5,350.1,70.2 M380.6,75.7c-0.2,0-0.4,0-0.6-0.1c-1.5-0.4-3.1-0.8-4.8-1.2
	c-3.3-0.8-6.7-1.5-10.1-2.1c-0.2,0-0.3-0.1-0.4-0.1v0.1l-4.5,40.2c2.2,0.2,4.2,0.3,6.2,0.5c1,0.1,2.1,0.2,3,0.3
	c2.7,0.3,5.4,0.7,8.1,1.3l4.3-38.4l0.1-0.7C381.4,75.6,381,75.7,380.6,75.7 M381.8,115.5c0.2,0,0.3,0.1,0.5,0.2v-0.1
	C382.1,115.5,382,115.5,381.8,115.5 M403.3,85c-3-1.6-8.7-4.7-11.9-5.9c-1.5-0.6-3.2-1.1-4.9-1.7l-4.2,38.1c4.2,1,8.4,2.3,12.4,3.8
	c2.1,0.8,3.4,1.4,4.5,2.1L403.3,85C403.3,85.1,403.3,85,403.3,85 M296.4,73c0.1,0,0.3,0,0.4-0.1l0,0C296.6,72.9,296.5,72.9,296.4,73
	 M284.2,75.2c-1.7,0.3-3.5,0.8-5.5,1.3c-1.6,0.4-3.4,0.9-5.2,1.4l-4.1,39.4c1.3-0.3,2.5-0.5,3.6-0.7c0.4-0.1,0.8-0.1,1.2-0.2h0.3
	c3.8-0.7,8.2-1.3,12.8-1.8l4.3-40.6C289.3,74.2,286.8,74.7,284.2,75.2 M223.7,178.3c-1.8,0.5-3.6,1-5.4,1.4l-4.5,45.1
	c0,0.2-0.1,0.4-0.1,0.5l17.3-0.1c0-0.1,0-0.2,0-0.3l5.1-49.9C232,176.1,227.8,177.1,223.7,178.3 M36.8,189.3l-16.1,8.3
	c-0.4,0.2-0.8,0.3-1.2,0.3V211l16.1-6.4l22.1-8.8l2.1-18.4L36.8,189.3z M35.3,210.1l-15.4,6.1c-0.1,0-0.3,0.1-0.4,0.1v9.9l12.2-0.1
	h2.5h2.5h4.4l13.5-4l2.4-20.8L35.3,210.1z M21.8,168.2c-0.1,0-0.1,0.1-0.2,0.1l0,0l0,0c-1.3,1-2,1.6-2,1.9v22.4l17.7-9.1l23.4-12.1
	l3.3-28.1L21.8,168.2z M69.2,140.1c0,0.1,0,0.1,0,0.2L66,168.6l21.8-11.3l3.3-30.2L69.2,140.1z"/>
	<path class="st0" d="M538.1,216.4v-1.9l-2.5-0.4v-1l10.7-11.4h0.1v12.4l-2.5,0.4v1.9h8v-1.9l-2.5-0.4v-17.5l2.5-0.4v-1.9h-2.5h-3
	h-2.5v1.9l2.5,0.4v1.4l-10.7,11.4h-0.1v-12.8l2.5-0.4v-1.9h-2.5h-3h-2.5v1.9l2.5,0.4v17.5l-2.5,0.4v1.9L538.1,216.4L538.1,216.4z
	 M521.1,216.4v-1.9l-2.5-0.4v-17.6h5l0.5,3.1h2.2v-5.4h-18.5v5.4h2.3l0.4-3.1h5v17.6l-2.5,0.4v1.9H521.1z M495.7,199.5h0.4
	c1.3,0,2.3,0.2,3.2,0.7s1.6,1.2,2.1,2c0.5,0.9,0.7,1.9,0.7,3.1c0,1.1-0.2,2.1-0.7,3s-1.2,1.5-2.1,2s-2,0.7-3.2,0.7h-0.4V199.5z
	 M489,210.4c-0.9-0.5-1.6-1.1-2-2c-0.5-0.9-0.7-1.9-0.7-3c0-1.2,0.2-2.2,0.7-3.1c0.5-0.9,1.2-1.6,2-2.1c0.9-0.5,2-0.7,3.3-0.7h0.4
	v11.6h-0.4C491,211.1,489.9,210.9,489,210.4 M498.2,217.6v-1.9l-2.5-0.4v-1.8h0.4c1.7,0,3.2-0.4,4.6-1.1c1.4-0.7,2.4-1.7,3.2-2.9
	c0.8-1.2,1.2-2.6,1.2-4.1c0-1.6-0.4-3-1.2-4.2c-0.8-1.2-1.9-2.2-3.2-2.9c-1.4-0.7-2.9-1.1-4.6-1.1h-0.4v-1.8l2.5-0.4v-2h-8v1.9
	l2.5,0.4v1.8h-0.4c-1.7,0-3.2,0.4-4.6,1.1c-1.4,0.7-2.4,1.7-3.2,2.9c-0.8,1.2-1.2,2.7-1.2,4.2s0.4,2.9,1.2,4.1
	c0.8,1.2,1.9,2.2,3.2,2.9c1.4,0.7,2.9,1.1,4.6,1.1h0.4v1.8l-2.5,0.4v1.9h8V217.6z M461.1,216.4v-1.9l-2.7-0.4v-6.4l-0.1-9.3h0.1
	l7.5,17.3h2l7.2-17.3h0.1v9.3v6.4l-2.6,0.4v1.9h8v-1.9l-2.5-0.4v-17.5l2.5-0.4v-1.9h-6.7l-6.9,16.9h-0.1l-7.2-16.9h-4h-2.5v1.9
	l2.5,0.4v17.5l-2.5,0.4v1.9H461.1z"/>
	<path class="st0" d="M689.2,159v8.8h-4.1c-1.6,0-2.8-0.4-3.6-1.2s-1.3-1.9-1.3-3.2s0.4-2.4,1.2-3.1c0.8-0.8,2-1.1,3.6-1.1h4.2V159z
	 M692.3,176.6V159l2.5-0.4v-1.9h-9.6c-2.5,0-4.4,0.6-5.8,1.8c-1.4,1.2-2.1,2.8-2.1,4.9c0,1.5,0.4,2.8,1.3,3.9c0.8,1,2,1.8,3.6,2.3
	v0.1L679,175c-0.3,0.5-0.6,0.8-0.9,1.1c-0.3,0.2-0.7,0.4-1.1,0.4c-0.3,0-0.6-0.1-0.9-0.2l-0.4,2.1c0.3,0.2,0.6,0.4,0.9,0.5
	c0.3,0.1,0.6,0.2,1.1,0.2c0.8,0,1.5-0.2,2.1-0.7s1.2-1.1,1.7-2l3.3-6.2h4.5v6.4l-2.5,0.4v1.9h8V177L692.3,176.6z M659.9,178.9V177
	l-2.5-0.4v-1l10.7-11.4h0.1v12.4l-2.5,0.4v1.9h8V177l-2.5-0.4V159l2.5-0.4v-1.9h-2.5h-3h-2.5v1.9l2.5,0.4v1.4l-10.7,11.4h-0.1V159
	l2.5-0.4v-1.9h-2.5h-3H652v1.9l2.5,0.4v17.5L652,177v1.9H659.9z M649.8,184.3v-7.7h-2.9V159l2.5-0.4v-1.9h-8v1.9l2.5,0.4v17.5h-10.8
	V159l2.5-0.4v-1.9h-8v1.9l2.5,0.4v17.5l-2.5,0.4v1.9h19.2v5.4h3V184.3z M611.6,178.9V177l-2.5-0.4v-7.5h10.6v7.5l-2.5,0.4v1.9h8V177
	l-2.5-0.4V159l2.5-0.4v-1.9h-2.5h-3h-2.5v1.9l2.5,0.4v7.7h-10.6V159l2.5-0.4v-1.9h-8v1.9l2.5,0.4v17.5l-2.5,0.4v1.9h8V178.9z
	 M600.6,178.9v-5.3h-2.4l-0.3,3.1h-8.7v-8h8.2v-2.4h-8.2V159h8.2l0.3,3h2.4v-5.3h-16.5v1.9l2.5,0.4v17.5l-2.5,0.4v1.9h17V178.9z
	 M569.3,159h4.7c1.5,0,2.6,0.4,3.4,1.2c0.7,0.8,1.1,1.9,1.1,3.1c0,1.2-0.4,2.2-1.1,3.1c-0.7,0.8-1.9,1.2-3.4,1.2h-4.7V159z
	 M571.8,178.9V177l-2.5-0.4V170h4.7c1.6,0,2.9-0.3,4.1-0.8s2-1.3,2.6-2.3s0.9-2.2,0.9-3.5s-0.3-2.5-0.9-3.5c-0.6-1-1.4-1.8-2.6-2.3
	c-1.1-0.6-2.5-0.8-4.1-0.8h-7.7h-2.5v1.9l2.5,0.4v17.5l-2.5,0.4v1.9L571.8,178.9L571.8,178.9z M560.8,178.9v-5.3h-2.4l-0.3,3.1h-8.7
	v-8h8.2v-2.4h-8.2V159h8.2l0.3,3h2.4v-5.3h-16.5v1.9l2.5,0.4v17.5l-2.5,0.4v1.9h17V178.9z M531.9,162h0.4c1.3,0,2.3,0.2,3.2,0.7
	s1.6,1.2,2.1,2c0.5,0.9,0.7,1.9,0.7,3.1c0,1.1-0.2,2.1-0.7,3s-1.2,1.5-2.1,2c-0.9,0.5-2,0.7-3.2,0.7h-0.4V162z M525.2,172.9
	c-0.9-0.5-1.6-1.1-2-2c-0.5-0.9-0.7-1.9-0.7-3c0-1.2,0.2-2.2,0.7-3.1c0.5-0.9,1.1-1.6,2-2.1s2-0.7,3.3-0.7h0.4v11.6h-0.4
	C527.2,173.6,526.1,173.4,525.2,172.9 M534.4,180.1v-1.9l-2.5-0.4V176h0.4c1.7,0,3.2-0.4,4.6-1.1c1.4-0.7,2.4-1.7,3.2-2.9
	s1.2-2.6,1.2-4.1c0-1.6-0.4-3-1.2-4.2s-1.9-2.2-3.2-2.9c-1.4-0.7-2.9-1.1-4.6-1.1h-0.4v-1.8l2.5-0.4v-1.9h-8v1.9l2.5,0.4v1.8h-0.4
	c-1.7,0-3.2,0.4-4.6,1.1c-1.4,0.7-2.4,1.7-3.2,2.9s-1.2,2.7-1.2,4.2s0.4,2.9,1.2,4.1c0.8,1.2,1.9,2.2,3.2,2.9
	c1.4,0.7,2.9,1.1,4.6,1.1h0.4v1.8l-2.5,0.4v1.9H534.4z M503.3,178.9V177l-2.5-0.4v-7.5h10.6v7.5L509,177v1.9h8V177l-2.5-0.4V159
	l2.5-0.4v-1.9h-2.5h-3H509v1.9l2.5,0.4v7.7h-10.6V159l2.5-0.4v-1.9h-8v1.9l2.5,0.4v17.5l-2.5,0.4v1.9h7.9V178.9z M479,175.6
	c-0.9-0.7-1.6-1.8-2.1-3.1s-0.7-2.8-0.7-4.6v-0.4c0-1.7,0.2-3.2,0.7-4.5s1.2-2.3,2.1-3.1c0.9-0.7,2.1-1.1,3.4-1.1
	c1.5,0,2.6,0.4,3.6,1.1c0.9,0.7,1.6,1.8,2,3.1s0.6,2.8,0.6,4.6v0.4c0,1.7-0.2,3.3-0.6,4.6s-1.1,2.3-2,3.1c-0.9,0.7-2.1,1.1-3.6,1.1
	C481,176.7,479.9,176.4,479,175.6 M486.3,178.4c1.2-0.6,2.1-1.3,2.9-2.3s1.4-2.2,1.8-3.6c0.4-1.4,0.6-2.9,0.6-4.5v-0.3
	c0-1.6-0.2-3.2-0.6-4.5c-0.4-1.4-1-2.6-1.8-3.6s-1.7-1.8-2.9-2.3c-1.1-0.5-2.5-0.8-4-0.8c-1.4,0-2.7,0.3-3.9,0.8
	c-1.1,0.5-2.1,1.3-2.9,2.3s-1.4,2.2-1.8,3.6c-0.4,1.4-0.6,2.9-0.6,4.5v0.3c0,1.7,0.2,3.2,0.6,4.5c0.4,1.4,1,2.6,1.8,3.6
	s1.8,1.8,2.9,2.3s2.4,0.8,3.9,0.8C483.9,179.2,485.2,179,486.3,178.4 M460.8,178.9V177l-2.5-0.4v-7.3h2.9l6,7.5l0.1,0.1l-1.7,0.2
	v1.9h7.3v-2l-2.1-0.4l-7.4-9.1l4.8-6.7c0.4-0.6,0.8-1,1.2-1.3s0.7-0.4,1.2-0.4c0.2,0,0.4,0,0.6,0.1c0.2,0,0.4,0.1,0.7,0.1l0.4-2.1
	c-0.4-0.2-0.7-0.4-1-0.5s-0.7-0.2-1.2-0.2c-0.8,0-1.5,0.2-2.1,0.6c-0.6,0.4-1.3,1.2-2.2,2.3l-5,7.2h-2.4V159l2.5-0.4v-1.9h-8v1.9
	l2.5,0.4v17.5l-2.5,0.4v1.9h7.9V178.9z"/>
	<path class="st0" d="M605.2,121.5v8.8h-4.1c-1.6,0-2.8-0.4-3.6-1.2s-1.2-1.9-1.2-3.2c0-1.3,0.4-2.4,1.2-3.1c0.8-0.8,2-1.1,3.6-1.1
	h4.1V121.5z M608.2,139v-17.5l2.5-0.4v-1.9h-9.6c-2.5,0-4.4,0.6-5.8,1.8s-2.1,2.8-2.1,4.9c0,1.5,0.4,2.8,1.3,3.9
	c0.8,1,2,1.8,3.6,2.3v0.1l-3.1,5.4c-0.3,0.5-0.6,0.8-0.9,1.1c-0.3,0.2-0.7,0.4-1.1,0.4c-0.3,0-0.6-0.1-0.9-0.2l-0.4,2.1
	c0.3,0.2,0.6,0.4,0.9,0.5c0.3,0.1,0.6,0.2,1.1,0.2c0.8,0,1.5-0.2,2.1-0.7s1.2-1.1,1.7-2l3.3-6.2h4.5v6.4l-2.5,0.4v1.9h8v-1.9
	L608.2,139z M578.9,123.5l0.2-0.5h0.1l0.2,0.5l3.3,9h-7.1L578.9,123.5z M574.8,141.4v-1.9l-1.7-0.3l1.5-4.1h8.9l1.5,4.1l-1.7,0.3
	v1.9h6.4v-1.9l-1.6-0.2l-7.6-20.1h-2.6l-7.8,20.1l-1.7,0.2v1.9H574.8z M552.5,141.4v-1.9L550,139v-7.5h10.6v7.5l-2.5,0.4v1.9h8v-1.9
	l-2.5-0.4v-17.5l2.5-0.4v-1.9h-2.5h-3h-2.5v1.9l2.5,0.4v7.7H550v-7.7l2.5-0.4v-1.9h-8v1.9l2.5,0.4V139l-2.5,0.4v1.9h8V141.4z
	 M542.3,141.4v-1.9l-2.5-0.4v-17.5l2.5-0.4v-1.9h-8v1.9l2.5,0.4v8.3c-1,0.3-2,0.5-3,0.6s-2,0.2-3.1,0.2c-1.6,0-2.7-0.3-3.4-1
	c-0.7-0.6-1.1-1.8-1.1-3.5v-4.7l2.5-0.4v-1.9h-8v1.9l2.5,0.4v4.7c0,2.4,0.6,4.2,1.9,5.2c1.3,1.1,3.1,1.6,5.6,1.6
	c1.2,0,2.3-0.1,3.2-0.2c0.9-0.1,1.8-0.3,2.8-0.6v6.9l-2.5,0.4v1.9H542.3z M507.6,141.3c0.6-0.3,1.2-0.7,1.6-1.3s0.8-1.3,1.2-2.2
	l6.9-16.4l1.7-0.3v-1.9h-7.1v1.9l1.9,0.3l-4.2,11h-0.1l-1.1-2.9l-3.4-8.2l1.9-0.3v-1.9h-7v1.9l1.8,0.3l6.5,14.4l-0.6,1.3
	c-0.4,0.8-0.7,1.4-1.1,1.8c-0.3,0.4-0.8,0.5-1.5,0.5c-0.2,0-0.4,0-0.8,0c-0.3,0-0.6,0-0.7,0l-0.1,2.3c0.1,0,0.3,0.1,0.6,0.1
	c0.3,0,0.6,0,0.9,0C506.1,141.7,507,141.6,507.6,141.3 M487.3,123.5l0.2-0.5h0.1l0.2,0.5l3.3,9H484L487.3,123.5z M483.2,141.4v-1.9
	l-1.7-0.3l1.5-4.1h8.9l1.5,4.1l-1.7,0.3v1.9h6.4v-1.9l-1.6-0.2l-7.6-20.1h-2.6l-7.8,20.1l-1.6,0.2v1.9H483.2z M460.9,141.4v-1.9
	l-2.5-0.4v-7.5H469v7.5l-2.5,0.4v1.9h8v-1.9l-2.5-0.4v-17.5l2.5-0.4v-1.9H472h-3h-2.5v1.9l2.5,0.4v7.7h-10.6v-7.7l2.5-0.4v-1.9h-8
	v1.9l2.5,0.4V139l-2.5,0.4v1.9h8V141.4z"/>
	<path class="st0" d="M724,84v8.8h-4.1c-1.6,0-2.8-0.4-3.6-1.2c-0.8-0.8-1.3-1.9-1.3-3.2c0-1.3,0.4-2.4,1.2-3.1
	c0.8-0.8,2-1.1,3.6-1.1h4.2V84z M727.1,101.5V84l2.5-0.4v-1.9H720c-2.5,0-4.4,0.6-5.8,1.8c-1.4,1.2-2.1,2.8-2.1,4.9
	c0,1.5,0.4,2.8,1.3,3.9c0.8,1,2,1.8,3.6,2.3v0.1l-3.1,5.4c-0.3,0.5-0.6,0.8-0.9,1.1c-0.3,0.2-0.7,0.4-1.1,0.4
	c-0.3,0-0.6-0.1-0.9-0.2l-0.4,2.1c0.3,0.2,0.6,0.4,0.8,0.5c0.3,0.1,0.6,0.2,1.1,0.2c0.8,0,1.5-0.2,2.1-0.7s1.2-1.1,1.7-2l3.3-6.2
	h4.5v6.4l-2.5,0.4v1.9h8v-1.9L727.1,101.5z M697.7,86l0.2-0.5h0.1l0.2,0.5l3.3,9h-7.1L697.7,86z M693.6,103.9V102l-1.7-0.3l1.5-4.1
	h8.9l1.5,4.1l-1.7,0.3v1.9h6.4V102l-1.6-0.2l-7.6-20.1h-2.6l-7.8,20.1l-1.6,0.2v1.9H693.6z M673.1,103.9V102l-2.5-0.4v-7.3h2.9
	l6,7.5l0.1,0.1l-1.7,0.2v1.9h7.3v-1.9l-2.1-0.4l-7.4-9.1l4.8-6.7c0.4-0.6,0.8-1,1.2-1.3c0.3-0.3,0.7-0.4,1.2-0.4
	c0.2,0,0.4,0,0.6,0.1c0.2,0,0.5,0.1,0.7,0.1l0.4-2.1c-0.4-0.2-0.7-0.4-1-0.5s-0.7-0.2-1.2-0.2c-0.8,0-1.5,0.2-2.1,0.6
	s-1.3,1.2-2.2,2.3l-5,7.2h-2.4V84l2.5-0.4v-1.9h-8v1.9l2.5,0.4v17.5l-2.5,0.4v1.9L673.1,103.9L673.1,103.9z M658.7,103.8
	c1.2-0.3,2.2-0.7,3-1.2v-4.8h-2.3l-0.3,3.1c-0.4,0.3-1,0.5-1.7,0.7s-1.4,0.3-2.1,0.3c-1.5,0-2.8-0.3-3.9-1c-1.1-0.7-1.9-1.7-2.4-3
	c-0.6-1.3-0.8-2.9-0.8-4.8v-0.4c0-1.7,0.3-3.2,0.8-4.5s1.3-2.3,2.3-3.1c1-0.7,2.2-1.1,3.7-1.1c0.6,0,1.2,0,1.7,0.1s1,0.2,1.4,0.4
	c0.4,0.2,0.8,0.4,1.1,0.6l0.3,3.5h2.4v-4.8c-0.8-0.7-1.8-1.3-3-1.7c-1.2-0.4-2.5-0.7-3.9-0.7c-2,0-3.8,0.5-5.3,1.5s-2.6,2.3-3.4,4
	c-0.8,1.7-1.2,3.6-1.2,5.8V93c0,2.2,0.4,4.1,1.1,5.8c0.7,1.7,1.9,3,3.4,4s3.4,1.5,5.6,1.5C656.4,104.2,657.6,104,658.7,103.8
	 M635.4,78.8c0.8-0.8,1.3-1.8,1.3-3.1v-0.1h-2.3c0,0.7-0.2,1.3-0.6,1.8c-0.4,0.5-1,0.7-1.8,0.7s-1.4-0.2-1.8-0.7
	c-0.4-0.5-0.6-1.1-0.6-1.8h-2.3v0.1c0,1.3,0.4,2.3,1.3,3.1c0.8,0.8,2,1.2,3.5,1.2C633.4,80,634.5,79.6,635.4,78.8 M629,103.9V102
	l-2.5-0.4v-1l10.7-11.4h0.1v12.4l-2.5,0.4v1.9h8V102l-2.5-0.4V84l2.5-0.4v-1.9h-2.5h-3h-2.5v1.9l2.5,0.4v1.4l-10.7,11.4h-0.1V84
	l2.5-0.4v-1.9h-2.5h-3H621v1.9l2.5,0.4v17.5l-2.5,0.4v1.9L629,103.9L629,103.9z M605,103.9V102l-2.5-0.4v-1l10.7-11.4h0.1v12.4
	l-2.5,0.4v1.9h8V102l-2.5-0.4V84l2.5-0.4v-1.9h-2.5h-3h-2.5v1.9l2.5,0.4v1.4l-10.7,11.4h-0.1V84l2.5-0.4v-1.9h-2.5h-3H597v1.9
	l2.5,0.4v17.5l-2.5,0.4v1.9L605,103.9L605,103.9z M590.5,103.8c1.2-0.3,2.2-0.7,3-1.2v-4.8h-2.4l-0.3,3.1c-0.4,0.3-1,0.5-1.7,0.7
	s-1.4,0.3-2.1,0.3c-1.5,0-2.8-0.3-3.9-1c-1.1-0.7-1.9-1.7-2.4-3c-0.6-1.3-0.8-2.9-0.8-4.8v-0.4c0-1.7,0.3-3.2,0.8-4.5
	s1.3-2.3,2.3-3.1c1-0.7,2.2-1.1,3.7-1.1c0.6,0,1.2,0,1.7,0.1s1,0.2,1.4,0.4c0.4,0.2,0.8,0.4,1.1,0.6l0.3,3.5h2.4v-4.8
	c-0.8-0.7-1.8-1.3-3-1.7c-1.2-0.4-2.5-0.7-3.9-0.7c-2,0-3.8,0.5-5.3,1.5s-2.6,2.3-3.4,4c-0.8,1.7-1.2,3.6-1.2,5.8V93
	c0,2.2,0.4,4.1,1.1,5.8c0.7,1.7,1.9,3,3.4,4s3.4,1.5,5.6,1.5C588.2,104.2,589.4,104,590.5,103.8 M570.4,103.8c1.2-0.3,2.2-0.7,3-1.2
	v-4.8H571l-0.3,3.1c-0.4,0.3-1,0.5-1.7,0.7s-1.4,0.3-2.1,0.3c-1.5,0-2.8-0.3-3.9-1c-1.1-0.7-1.9-1.7-2.4-3c-0.6-1.3-0.8-2.9-0.8-4.8
	v-0.4c0-1.7,0.3-3.2,0.8-4.5s1.3-2.3,2.3-3.1c1-0.7,2.2-1.1,3.7-1.1c0.6,0,1.2,0,1.7,0.1s1,0.2,1.4,0.4c0.4,0.2,0.8,0.4,1.1,0.6
	l0.3,3.5h2.4v-4.8c-0.8-0.7-1.8-1.3-3-1.7c-1.2-0.4-2.5-0.7-3.9-0.7c-2,0-3.8,0.5-5.3,1.5s-2.6,2.3-3.4,4c-0.8,1.7-1.2,3.6-1.2,5.8
	V93c0,2.2,0.4,4.1,1.1,5.8c0.7,1.7,1.9,3,3.4,4s3.4,1.5,5.6,1.5C568,104.2,569.2,104,570.4,103.8 M539.5,100.6
	c-0.9-0.7-1.6-1.8-2.1-3.1c-0.5-1.3-0.7-2.8-0.7-4.6v-0.4c0-1.7,0.2-3.2,0.7-4.5s1.2-2.3,2.1-3.1c0.9-0.7,2.1-1.1,3.4-1.1
	c1.5,0,2.6,0.4,3.6,1.1c0.9,0.7,1.6,1.8,2,3.1c0.4,1.3,0.6,2.8,0.6,4.6V93c0,1.7-0.2,3.3-0.6,4.6c-0.4,1.3-1.1,2.3-2,3.1
	c-0.9,0.7-2.1,1.1-3.6,1.1C541.6,101.7,540.4,101.3,539.5,100.6 M546.9,103.4c1.1-0.6,2.1-1.3,2.9-2.3c0.8-1,1.4-2.2,1.8-3.6
	c0.4-1.4,0.6-2.9,0.6-4.5v-0.3c0-1.6-0.2-3.2-0.6-4.5c-0.4-1.4-1-2.6-1.8-3.6s-1.7-1.8-2.9-2.3s-2.5-0.8-4-0.8
	c-1.4,0-2.7,0.3-3.9,0.8c-1.1,0.5-2.1,1.3-2.9,2.3c-0.8,1-1.4,2.2-1.8,3.6c-0.4,1.4-0.6,2.9-0.6,4.5V93c0,1.7,0.2,3.2,0.6,4.5
	c0.4,1.4,1,2.6,1.8,3.6s1.8,1.8,2.9,2.3c1.1,0.5,2.4,0.8,3.9,0.8C544.4,104.2,545.7,103.9,546.9,103.4 M519.1,84h4.7
	c1.5,0,2.6,0.4,3.4,1.2c0.7,0.8,1.1,1.9,1.1,3.1s-0.4,2.2-1.1,3.1c-0.7,0.8-1.9,1.2-3.4,1.2h-4.7V84z M521.6,103.9V102l-2.5-0.4V95
	h4.7c1.6,0,2.9-0.3,4.1-0.8c1.1-0.5,2-1.3,2.6-2.3s0.9-2.2,0.9-3.5s-0.3-2.5-0.9-3.5c-0.6-1-1.4-1.8-2.6-2.3
	c-1.1-0.6-2.5-0.8-4.1-0.8h-7.7h-2.5v1.9l2.5,0.4v17.5l-2.5,0.4v1.9C513.6,103.9,521.6,103.9,521.6,103.9z M510.6,103.9v-5.3h-2.4
	l-0.3,3.1h-8.7v-8h8.2v-2.4h-8.2V84h8.2l0.3,3h2.4v-5.3h-16.5v1.9l2.5,0.4v17.5l-2.5,0.4v1.9L510.6,103.9L510.6,103.9z M487.1,103.8
	c1.2-0.3,2.2-0.7,3-1.2v-4.8h-2.4l-0.3,3.1c-0.4,0.3-1,0.5-1.7,0.7s-1.4,0.3-2.1,0.3c-1.5,0-2.8-0.3-3.9-1s-1.9-1.7-2.4-3
	c-0.6-1.3-0.8-2.9-0.8-4.8v-0.4c0-1.7,0.3-3.2,0.8-4.5s1.3-2.3,2.3-3.1c1-0.7,2.2-1.1,3.7-1.1c0.6,0,1.2,0,1.7,0.1s1,0.2,1.4,0.4
	c0.4,0.2,0.8,0.4,1.1,0.6l0.3,3.5h2.4v-4.8c-0.8-0.7-1.8-1.3-3-1.7c-1.2-0.4-2.5-0.7-3.9-0.7c-2,0-3.8,0.5-5.3,1.5s-2.6,2.3-3.4,4
	s-1.2,3.6-1.2,5.8V93c0,2.2,0.4,4.1,1.1,5.8c0.7,1.7,1.9,3,3.4,4s3.4,1.5,5.6,1.5C484.8,104.2,485.9,104,487.1,103.8 M458.4,84h4.1
	c1.4,0,2.5,0.3,3.3,0.9s1.1,1.5,1.1,2.7c0,1.1-0.3,1.9-1,2.6c-0.7,0.6-1.5,0.9-2.6,0.9h-4.9V84z M458.4,93.4h5.5
	c0.9,0,1.6,0.2,2.2,0.5s1,0.8,1.3,1.4s0.4,1.4,0.4,2.2c0,1.2-0.4,2.2-1.1,2.9c-0.8,0.7-1.8,1-3.2,1h-5L458.4,93.4L458.4,93.4z
	 M463.5,103.9c2.3,0,4.1-0.5,5.4-1.6s2-2.6,2-4.7c0-0.9-0.2-1.8-0.5-2.5c-0.3-0.8-0.8-1.4-1.5-2c-0.6-0.5-1.4-0.9-2.3-1.1
	c1-0.4,1.9-1,2.5-1.7c0.6-0.8,0.9-1.7,0.9-2.7c0-2-0.7-3.5-2-4.5s-3.1-1.5-5.4-1.5h-7.1H453v1.9l2.5,0.4v17.5l-2.5,0.4v1.9h10.5
	V103.9z"/>
	<path class="st0" d="M470.1,61.9c-3.4,0-6.4-0.8-9-2.3c-2.6-1.5-4.6-3.7-6-6.5c-1.4-2.8-2.2-6.2-2.2-10v-9.4c0-4.1,0.8-7.6,2.5-10.5
	c1.7-2.9,4-5.2,6.9-6.8c2.9-1.6,6.3-2.4,10.1-2.4c1.9,0,3.5,0.2,4.9,0.5c1.4,0.3,3,0.8,4.8,1.5l-1.9,8.1c-1.2-0.4-2.5-0.7-3.8-0.9
	c-1.3-0.3-2.5-0.4-3.7-0.4c-2.9,0-5.1,0.9-6.5,2.6c-1.4,1.8-2,4.3-2,7.6l0.1,0.2c0.9-1.1,2.2-1.9,3.7-2.5c1.5-0.6,3.2-0.9,5.1-0.9
	c2.8,0,5.2,0.7,7.2,2s3.5,3.2,4.5,5.7c1,2.4,1.5,5.2,1.5,8.3c0,3.1-0.7,5.8-2.1,8.2s-3.4,4.3-5.8,5.8
	C476.1,61.2,473.3,61.9,470.1,61.9z M469.8,53.3c1.1,0,2.1-0.4,2.9-1.1c0.8-0.7,1.5-1.6,1.9-2.8c0.5-1.2,0.7-2.5,0.7-3.9
	c0-2.2-0.5-3.9-1.5-5.2c-1-1.3-2.5-2-4.5-2c-0.7,0-1.3,0.1-2,0.2s-1.3,0.4-1.8,0.7c-0.6,0.3-1,0.7-1.4,1.1v2.7
	c0,3.3,0.5,5.8,1.5,7.6C466.7,52.5,468,53.3,469.8,53.3z"/>
	<path class="st0" d="M506.6,61.9c-3.4,0-6.4-0.8-9-2.3c-2.6-1.5-4.6-3.7-6-6.5c-1.4-2.8-2.2-6.2-2.2-10v-9.4c0-4.1,0.8-7.6,2.5-10.5
	c1.7-2.9,4-5.2,6.9-6.8c2.9-1.6,6.3-2.4,10.1-2.4c1.9,0,3.5,0.2,4.9,0.5c1.4,0.3,3,0.8,4.8,1.5l-1.9,8.1c-1.2-0.4-2.5-0.7-3.8-0.9
	c-1.3-0.3-2.5-0.4-3.7-0.4c-2.9,0-5.1,0.9-6.5,2.6c-1.4,1.8-2,4.3-2,7.6l0.1,0.2c0.9-1.1,2.2-1.9,3.7-2.5c1.5-0.6,3.2-0.9,5.1-0.9
	c2.8,0,5.2,0.7,7.2,2s3.5,3.2,4.5,5.7c1,2.4,1.5,5.2,1.5,8.3c0,3.1-0.7,5.8-2.1,8.2s-3.4,4.3-5.8,5.8
	C512.7,61.2,509.8,61.9,506.6,61.9z M506.4,53.3c1.1,0,2.1-0.4,2.9-1.1c0.8-0.7,1.5-1.6,1.9-2.8c0.5-1.2,0.7-2.5,0.7-3.9
	c0-2.2-0.5-3.9-1.5-5.2c-1-1.3-2.5-2-4.5-2c-0.7,0-1.3,0.1-2,0.2s-1.3,0.4-1.8,0.7c-0.6,0.3-1,0.7-1.4,1.1v2.7
	c0,3.3,0.5,5.8,1.5,7.6C503.2,52.5,504.6,53.3,506.4,53.3z"/>
</svg>
